# xmcd CD database file
#
# Track frame offsets:
#	150
#	13814
#	27104
#	43491
#	57907
#	71848
#	87598
#	101924
#	115323
#	133417
#
# Disc length: 1969 seconds
#
# Revision: 0
# Processed by: cddbd v1.5.2PL0 Copyright (c) Steve Scherf et al.
# Submitted via: CDex 1.70beta2
#
DISCID=9a07af0a
DTITLE=Paige, Rebekka - Cdn. - ON - Brockville - Rebekka Paige
DYEAR=2008
DGENRE=Country
TTITLE0=Hometown Blues
TTITLE1=Dream
TTITLE2=Girls Like Fast Cars Too
TTITLE3=Ripples On The Water
TTITLE4=Out Of Luck
TTITLE5=Good Riddance
TTITLE6=Shape Up Heart
TTITLE7=Modern Day Cowboy
TTITLE8=Unbreakable Heart
TTITLE9=Watch Your Back
EXTD=YEAR: 2008
EXTT0=
EXTT1=
EXTT2=
EXTT3=
EXTT4=
EXTT5=
EXTT6=
EXTT7=
EXTT8=
EXTT9=
PLAYORDER=
